<mxfile host="app.diagrams.net" modified="2023-12-29T05:00:30.528Z" agent="Mozilla/5.0 (X11; Ubuntu; Linux x86_64; rv:109.0) Gecko/20100101 Firefox/116.0" etag="X_w4QMIQXaclO2EMHRxe" version="22.1.15" type="github">
  <diagram id="C5RBs43oDa-KdzZeNtuy" name="Page-1">
    <mxGraphModel dx="1364" dy="795" grid="1" gridSize="10" guides="1" tooltips="1" connect="1" arrows="1" fold="1" page="1" pageScale="1" pageWidth="827" pageHeight="1169" math="0" shadow="0">
      <root>
        <mxCell id="WIyWlLk6GJQsqaUBKTNV-0" />
        <mxCell id="WIyWlLk6GJQsqaUBKTNV-1" parent="WIyWlLk6GJQsqaUBKTNV-0" />
        <mxCell id="AHcAX2zEuinGf8tiYZbR-78" value="" style="rounded=0;html=1;jettySize=auto;orthogonalLoop=1;fontSize=11;endArrow=block;endFill=0;endSize=8;strokeWidth=1;shadow=0;labelBackgroundColor=none;edgeStyle=orthogonalEdgeStyle;" edge="1" parent="WIyWlLk6GJQsqaUBKTNV-1" source="AHcAX2zEuinGf8tiYZbR-79" target="AHcAX2zEuinGf8tiYZbR-81">
          <mxGeometry relative="1" as="geometry" />
        </mxCell>
        <mxCell id="AHcAX2zEuinGf8tiYZbR-79" value="&lt;font style=&quot;font-size: 13px;&quot;&gt;&lt;b&gt;Init&lt;/b&gt;&lt;/font&gt;" style="rounded=1;whiteSpace=wrap;html=1;fontSize=12;glass=0;strokeWidth=1;shadow=0;" vertex="1" parent="WIyWlLk6GJQsqaUBKTNV-1">
          <mxGeometry x="350" y="130" width="120" height="40" as="geometry" />
        </mxCell>
        <mxCell id="AHcAX2zEuinGf8tiYZbR-80" value="&lt;font style=&quot;font-size: 13px;&quot;&gt;&lt;b&gt;1&lt;/b&gt;&lt;/font&gt;" style="rounded=0;html=1;jettySize=auto;orthogonalLoop=1;fontSize=11;endArrow=block;endFill=0;endSize=8;strokeWidth=1;shadow=0;labelBackgroundColor=none;edgeStyle=orthogonalEdgeStyle;entryX=0.5;entryY=0;entryDx=0;entryDy=0;" edge="1" parent="WIyWlLk6GJQsqaUBKTNV-1" source="AHcAX2zEuinGf8tiYZbR-81" target="AHcAX2zEuinGf8tiYZbR-87">
          <mxGeometry y="20" relative="1" as="geometry">
            <mxPoint as="offset" />
            <mxPoint x="410" y="340" as="targetPoint" />
          </mxGeometry>
        </mxCell>
        <mxCell id="AHcAX2zEuinGf8tiYZbR-81" value="&lt;font style=&quot;font-size: 13px;&quot;&gt;&lt;b&gt;Check LSB&lt;/b&gt;&lt;/font&gt;" style="rhombus;whiteSpace=wrap;html=1;shadow=0;fontFamily=Helvetica;fontSize=12;align=center;strokeWidth=1;spacing=6;spacingTop=-4;" vertex="1" parent="WIyWlLk6GJQsqaUBKTNV-1">
          <mxGeometry x="360" y="220" width="100" height="80" as="geometry" />
        </mxCell>
        <mxCell id="AHcAX2zEuinGf8tiYZbR-82" value="&lt;b&gt;&lt;font style=&quot;font-size: 13px;&quot;&gt;Multiplicand&lt;/font&gt;&lt;/b&gt;/&lt;b&gt;&lt;font style=&quot;font-size: 13px;&quot;&gt;Zeros&lt;/font&gt;&lt;/b&gt;" style="rounded=0;html=1;jettySize=auto;orthogonalLoop=1;fontSize=11;endArrow=block;endFill=0;endSize=8;strokeWidth=1;shadow=0;labelBackgroundColor=none;edgeStyle=orthogonalEdgeStyle;exitX=0.5;exitY=1;exitDx=0;exitDy=0;" edge="1" parent="WIyWlLk6GJQsqaUBKTNV-1" source="AHcAX2zEuinGf8tiYZbR-87" target="AHcAX2zEuinGf8tiYZbR-84">
          <mxGeometry x="-0.1429" y="60" relative="1" as="geometry">
            <mxPoint as="offset" />
            <mxPoint x="410" y="420" as="sourcePoint" />
          </mxGeometry>
        </mxCell>
        <mxCell id="AHcAX2zEuinGf8tiYZbR-83" value="" style="edgeStyle=orthogonalEdgeStyle;rounded=0;orthogonalLoop=1;jettySize=auto;html=1;" edge="1" parent="WIyWlLk6GJQsqaUBKTNV-1" source="AHcAX2zEuinGf8tiYZbR-84">
          <mxGeometry relative="1" as="geometry">
            <mxPoint x="410" y="550" as="targetPoint" />
          </mxGeometry>
        </mxCell>
        <mxCell id="AHcAX2zEuinGf8tiYZbR-84" value="&lt;font style=&quot;font-size: 13px;&quot;&gt;&lt;b&gt;ADD&lt;/b&gt;&lt;/font&gt;" style="rounded=1;whiteSpace=wrap;html=1;fontSize=12;glass=0;strokeWidth=1;shadow=0;" vertex="1" parent="WIyWlLk6GJQsqaUBKTNV-1">
          <mxGeometry x="350" y="480" width="120" height="40" as="geometry" />
        </mxCell>
        <mxCell id="AHcAX2zEuinGf8tiYZbR-85" value="" style="endArrow=classic;html=1;rounded=0;entryX=0;entryY=0.5;entryDx=0;entryDy=0;" edge="1" parent="WIyWlLk6GJQsqaUBKTNV-1" target="AHcAX2zEuinGf8tiYZbR-92">
          <mxGeometry width="50" height="50" relative="1" as="geometry">
            <mxPoint x="270" y="580" as="sourcePoint" />
            <mxPoint x="330" y="580" as="targetPoint" />
            <Array as="points">
              <mxPoint x="270" y="593" />
            </Array>
          </mxGeometry>
        </mxCell>
        <mxCell id="AHcAX2zEuinGf8tiYZbR-86" value="" style="endArrow=none;html=1;rounded=0;entryX=0;entryY=0.5;entryDx=0;entryDy=0;" edge="1" parent="WIyWlLk6GJQsqaUBKTNV-1" target="AHcAX2zEuinGf8tiYZbR-81">
          <mxGeometry width="50" height="50" relative="1" as="geometry">
            <mxPoint x="270" y="260" as="sourcePoint" />
            <mxPoint x="630" y="380" as="targetPoint" />
          </mxGeometry>
        </mxCell>
        <mxCell id="AHcAX2zEuinGf8tiYZbR-87" value="&lt;font style=&quot;font-size: 13px;&quot;&gt;&lt;b&gt;MUX&lt;/b&gt;&lt;/font&gt;" style="rounded=1;whiteSpace=wrap;html=1;" vertex="1" parent="WIyWlLk6GJQsqaUBKTNV-1">
          <mxGeometry x="350" y="350" width="120" height="60" as="geometry" />
        </mxCell>
        <mxCell id="AHcAX2zEuinGf8tiYZbR-88" value="" style="endArrow=none;html=1;rounded=0;" edge="1" parent="WIyWlLk6GJQsqaUBKTNV-1">
          <mxGeometry width="50" height="50" relative="1" as="geometry">
            <mxPoint x="270" y="580" as="sourcePoint" />
            <mxPoint x="270" y="260" as="targetPoint" />
          </mxGeometry>
        </mxCell>
        <mxCell id="AHcAX2zEuinGf8tiYZbR-89" value="&lt;b&gt;&lt;font style=&quot;font-size: 13px;&quot;&gt;0&lt;/font&gt;&lt;/b&gt;" style="text;html=1;align=center;verticalAlign=middle;resizable=0;points=[];autosize=1;strokeColor=none;fillColor=none;" vertex="1" parent="WIyWlLk6GJQsqaUBKTNV-1">
          <mxGeometry x="305" y="228" width="30" height="30" as="geometry" />
        </mxCell>
        <mxCell id="AHcAX2zEuinGf8tiYZbR-90" style="edgeStyle=orthogonalEdgeStyle;rounded=0;orthogonalLoop=1;jettySize=auto;html=1;" edge="1" parent="WIyWlLk6GJQsqaUBKTNV-1" source="AHcAX2zEuinGf8tiYZbR-92" target="AHcAX2zEuinGf8tiYZbR-81">
          <mxGeometry relative="1" as="geometry">
            <mxPoint x="510" y="230" as="targetPoint" />
            <Array as="points">
              <mxPoint x="550" y="595" />
              <mxPoint x="550" y="260" />
            </Array>
          </mxGeometry>
        </mxCell>
        <mxCell id="AHcAX2zEuinGf8tiYZbR-91" style="edgeStyle=orthogonalEdgeStyle;rounded=0;orthogonalLoop=1;jettySize=auto;html=1;" edge="1" parent="WIyWlLk6GJQsqaUBKTNV-1" source="AHcAX2zEuinGf8tiYZbR-92">
          <mxGeometry relative="1" as="geometry">
            <mxPoint x="410" y="670" as="targetPoint" />
          </mxGeometry>
        </mxCell>
        <mxCell id="AHcAX2zEuinGf8tiYZbR-92" value="&lt;font style=&quot;font-size: 13px;&quot;&gt;&lt;b&gt;Shift&lt;/b&gt;&lt;/font&gt;" style="rhombus;whiteSpace=wrap;html=1;" vertex="1" parent="WIyWlLk6GJQsqaUBKTNV-1">
          <mxGeometry x="370" y="550" width="80" height="85" as="geometry" />
        </mxCell>
        <mxCell id="AHcAX2zEuinGf8tiYZbR-93" value="&lt;b&gt;&lt;font style=&quot;font-size: 13px;&quot;&gt;Count &amp;lt; 16&lt;/font&gt;&lt;/b&gt;" style="text;html=1;align=center;verticalAlign=middle;resizable=0;points=[];autosize=1;strokeColor=none;fillColor=none;" vertex="1" parent="WIyWlLk6GJQsqaUBKTNV-1">
          <mxGeometry x="450" y="560" width="90" height="30" as="geometry" />
        </mxCell>
        <mxCell id="AHcAX2zEuinGf8tiYZbR-94" value="&lt;font size=&quot;1&quot;&gt;&lt;b style=&quot;font-size: 13px;&quot;&gt;Final Product&lt;/b&gt;&lt;/font&gt;" style="rounded=1;whiteSpace=wrap;html=1;" vertex="1" parent="WIyWlLk6GJQsqaUBKTNV-1">
          <mxGeometry x="350" y="670" width="120" height="40" as="geometry" />
        </mxCell>
        <mxCell id="AHcAX2zEuinGf8tiYZbR-95" value="&lt;b&gt;&lt;font style=&quot;font-size: 13px;&quot;&gt;Count &amp;gt; =16&lt;/font&gt;&lt;/b&gt;" style="text;html=1;align=center;verticalAlign=middle;resizable=0;points=[];autosize=1;strokeColor=none;fillColor=none;" vertex="1" parent="WIyWlLk6GJQsqaUBKTNV-1">
          <mxGeometry x="405" y="620" width="100" height="30" as="geometry" />
        </mxCell>
        <mxCell id="AHcAX2zEuinGf8tiYZbR-96" value="&lt;b&gt;&lt;font style=&quot;font-size: 22px;&quot;&gt;Flow Chart&lt;/font&gt;&lt;/b&gt;" style="text;html=1;align=center;verticalAlign=middle;resizable=0;points=[];autosize=1;strokeColor=none;fillColor=none;" vertex="1" parent="WIyWlLk6GJQsqaUBKTNV-1">
          <mxGeometry x="340" y="50" width="140" height="40" as="geometry" />
        </mxCell>
        <mxCell id="AHcAX2zEuinGf8tiYZbR-97" value="&lt;b&gt;&lt;font style=&quot;font-size: 22px;&quot;&gt;Datapath&lt;/font&gt;&lt;/b&gt;" style="text;html=1;align=center;verticalAlign=middle;resizable=0;points=[];autosize=1;strokeColor=none;fillColor=none;" vertex="1" parent="WIyWlLk6GJQsqaUBKTNV-1">
          <mxGeometry x="350" y="730" width="120" height="40" as="geometry" />
        </mxCell>
        <mxCell id="AHcAX2zEuinGf8tiYZbR-98" value="&lt;b&gt;&lt;font style=&quot;font-size: 13px;&quot;&gt;C&lt;/font&gt;&lt;/b&gt;" style="rounded=0;whiteSpace=wrap;html=1;" vertex="1" parent="WIyWlLk6GJQsqaUBKTNV-1">
          <mxGeometry x="170" y="850" width="40" height="40" as="geometry" />
        </mxCell>
        <mxCell id="AHcAX2zEuinGf8tiYZbR-99" value="&lt;b&gt;&lt;font style=&quot;font-size: 13px;&quot;&gt;Accumulator A [15:0]&lt;/font&gt;&lt;/b&gt;" style="rounded=0;whiteSpace=wrap;html=1;" vertex="1" parent="WIyWlLk6GJQsqaUBKTNV-1">
          <mxGeometry x="230" y="850" width="170" height="40" as="geometry" />
        </mxCell>
        <mxCell id="AHcAX2zEuinGf8tiYZbR-100" value="&lt;b&gt;&lt;font style=&quot;font-size: 13px;&quot;&gt;&amp;nbsp; &amp;nbsp; Multiplier Q [15:0]&amp;nbsp;&amp;nbsp;&amp;nbsp; Q[0]&lt;/font&gt;&lt;/b&gt;" style="rounded=0;whiteSpace=wrap;html=1;" vertex="1" parent="WIyWlLk6GJQsqaUBKTNV-1">
          <mxGeometry x="420" y="850" width="170" height="40" as="geometry" />
        </mxCell>
        <mxCell id="AHcAX2zEuinGf8tiYZbR-101" value="" style="endArrow=none;html=1;rounded=0;exitX=0.828;exitY=1.05;exitDx=0;exitDy=0;exitPerimeter=0;" edge="1" parent="WIyWlLk6GJQsqaUBKTNV-1" source="AHcAX2zEuinGf8tiYZbR-100">
          <mxGeometry width="50" height="50" relative="1" as="geometry">
            <mxPoint x="510" y="900" as="sourcePoint" />
            <mxPoint x="560" y="850" as="targetPoint" />
          </mxGeometry>
        </mxCell>
        <mxCell id="AHcAX2zEuinGf8tiYZbR-102" value="" style="endArrow=none;html=1;rounded=0;entryX=0.166;entryY=-0.013;entryDx=0;entryDy=0;entryPerimeter=0;" edge="1" parent="WIyWlLk6GJQsqaUBKTNV-1" target="AHcAX2zEuinGf8tiYZbR-103">
          <mxGeometry width="50" height="50" relative="1" as="geometry">
            <mxPoint x="590" y="870" as="sourcePoint" />
            <mxPoint x="770" y="950" as="targetPoint" />
            <Array as="points">
              <mxPoint x="690" y="870" />
              <mxPoint x="770" y="870" />
              <mxPoint x="770" y="950" />
            </Array>
          </mxGeometry>
        </mxCell>
        <mxCell id="AHcAX2zEuinGf8tiYZbR-103" value="&lt;b&gt;&lt;font style=&quot;font-size: 13px;&quot;&gt;Controller&lt;/font&gt;&lt;/b&gt;" style="rounded=0;whiteSpace=wrap;html=1;direction=south;" vertex="1" parent="WIyWlLk6GJQsqaUBKTNV-1">
          <mxGeometry x="660" y="930" width="60" height="120" as="geometry" />
        </mxCell>
        <mxCell id="AHcAX2zEuinGf8tiYZbR-104" value="" style="endArrow=none;html=1;rounded=0;exitX=1;exitY=0.5;exitDx=0;exitDy=0;" edge="1" parent="WIyWlLk6GJQsqaUBKTNV-1" source="AHcAX2zEuinGf8tiYZbR-99">
          <mxGeometry width="50" height="50" relative="1" as="geometry">
            <mxPoint x="370" y="920" as="sourcePoint" />
            <mxPoint x="420" y="870" as="targetPoint" />
          </mxGeometry>
        </mxCell>
        <mxCell id="AHcAX2zEuinGf8tiYZbR-105" value="" style="endArrow=none;html=1;rounded=0;exitX=1;exitY=0.5;exitDx=0;exitDy=0;" edge="1" parent="WIyWlLk6GJQsqaUBKTNV-1" source="AHcAX2zEuinGf8tiYZbR-98">
          <mxGeometry width="50" height="50" relative="1" as="geometry">
            <mxPoint x="180" y="920" as="sourcePoint" />
            <mxPoint x="230" y="870" as="targetPoint" />
            <Array as="points" />
          </mxGeometry>
        </mxCell>
        <mxCell id="AHcAX2zEuinGf8tiYZbR-106" value="" style="endArrow=none;html=1;rounded=0;entryX=0.5;entryY=1;entryDx=0;entryDy=0;" edge="1" parent="WIyWlLk6GJQsqaUBKTNV-1" target="AHcAX2zEuinGf8tiYZbR-103">
          <mxGeometry width="50" height="50" relative="1" as="geometry">
            <mxPoint x="510" y="1120" as="sourcePoint" />
            <mxPoint x="630" y="990" as="targetPoint" />
            <Array as="points">
              <mxPoint x="630" y="1120" />
              <mxPoint x="630" y="1060" />
              <mxPoint x="630" y="990" />
            </Array>
          </mxGeometry>
        </mxCell>
        <mxCell id="AHcAX2zEuinGf8tiYZbR-107" value="&lt;font style=&quot;font-size: 13px;&quot;&gt;&lt;b&gt;Mux&lt;/b&gt;&lt;/font&gt;" style="shadow=0;dashed=0;align=center;html=1;strokeWidth=1;shape=mxgraph.electrical.abstract.mux2;operation=demux;whiteSpace=wrap;" vertex="1" parent="WIyWlLk6GJQsqaUBKTNV-1">
          <mxGeometry x="470" y="1000" width="80" height="120" as="geometry" />
        </mxCell>
        <mxCell id="AHcAX2zEuinGf8tiYZbR-108" value="&lt;b&gt;&lt;font style=&quot;font-size: 13px;&quot;&gt;Multiplicand[15:0]&lt;/font&gt;&lt;/b&gt;" style="rounded=0;whiteSpace=wrap;html=1;" vertex="1" parent="WIyWlLk6GJQsqaUBKTNV-1">
          <mxGeometry x="420" y="930" width="166" height="40" as="geometry" />
        </mxCell>
        <mxCell id="AHcAX2zEuinGf8tiYZbR-109" value="" style="endArrow=none;html=1;rounded=0;entryX=1;entryY=0.25;entryDx=0;entryDy=0;exitX=1;exitY=0.21666666666666667;exitDx=0;exitDy=3;exitPerimeter=0;" edge="1" parent="WIyWlLk6GJQsqaUBKTNV-1" source="AHcAX2zEuinGf8tiYZbR-107" target="AHcAX2zEuinGf8tiYZbR-108">
          <mxGeometry width="50" height="50" relative="1" as="geometry">
            <mxPoint x="550" y="1030" as="sourcePoint" />
            <mxPoint x="584" y="920" as="targetPoint" />
            <Array as="points">
              <mxPoint x="610" y="1030" />
              <mxPoint x="610" y="980" />
              <mxPoint x="610" y="940" />
            </Array>
          </mxGeometry>
        </mxCell>
        <mxCell id="AHcAX2zEuinGf8tiYZbR-110" value="&lt;b&gt;&lt;font style=&quot;font-size: 13px;&quot;&gt;Zero [15:0]&lt;/font&gt;&lt;/b&gt;" style="rounded=0;whiteSpace=wrap;html=1;" vertex="1" parent="WIyWlLk6GJQsqaUBKTNV-1">
          <mxGeometry x="422" y="1130" width="166" height="40" as="geometry" />
        </mxCell>
        <mxCell id="AHcAX2zEuinGf8tiYZbR-111" value="" style="endArrow=none;html=1;rounded=0;entryX=1;entryY=0.65;entryDx=0;entryDy=3;entryPerimeter=0;" edge="1" parent="WIyWlLk6GJQsqaUBKTNV-1" target="AHcAX2zEuinGf8tiYZbR-107">
          <mxGeometry width="50" height="50" relative="1" as="geometry">
            <mxPoint x="600" y="1160" as="sourcePoint" />
            <mxPoint x="620" y="1120" as="targetPoint" />
            <Array as="points">
              <mxPoint x="590" y="1160" />
              <mxPoint x="610" y="1160" />
              <mxPoint x="610" y="1080" />
            </Array>
          </mxGeometry>
        </mxCell>
        <mxCell id="AHcAX2zEuinGf8tiYZbR-112" value="" style="endArrow=none;html=1;rounded=0;exitX=0.56;exitY=0;exitDx=0;exitDy=0;exitPerimeter=0;entryX=0;entryY=0.4583333333333333;entryDx=0;entryDy=0;entryPerimeter=0;" edge="1" parent="WIyWlLk6GJQsqaUBKTNV-1" target="AHcAX2zEuinGf8tiYZbR-107">
          <mxGeometry width="50" height="50" relative="1" as="geometry">
            <mxPoint x="320" y="1040.0000000000002" as="sourcePoint" />
            <mxPoint x="470" y="1063" as="targetPoint" />
            <Array as="points">
              <mxPoint x="320" y="1057.8000000000002" />
            </Array>
          </mxGeometry>
        </mxCell>
        <mxCell id="AHcAX2zEuinGf8tiYZbR-113" value="&lt;b&gt;&lt;font style=&quot;font-size: 13px;&quot;&gt;Mux Out&lt;/font&gt;&lt;/b&gt;" style="edgeLabel;html=1;align=center;verticalAlign=middle;resizable=0;points=[];" vertex="1" connectable="0" parent="AHcAX2zEuinGf8tiYZbR-112">
          <mxGeometry x="0.6021" y="-10" relative="1" as="geometry">
            <mxPoint as="offset" />
          </mxGeometry>
        </mxCell>
        <mxCell id="AHcAX2zEuinGf8tiYZbR-114" value="&lt;b&gt;&lt;font style=&quot;font-size: 13px;&quot;&gt;Adder&lt;br&gt;[15:0]&lt;/font&gt;&lt;/b&gt;" style="rounded=1;whiteSpace=wrap;html=1;direction=south;" vertex="1" parent="WIyWlLk6GJQsqaUBKTNV-1">
          <mxGeometry x="260" y="1000" width="60" height="120" as="geometry" />
        </mxCell>
        <mxCell id="AHcAX2zEuinGf8tiYZbR-115" value="" style="endArrow=none;html=1;rounded=0;exitX=0.56;exitY=0;exitDx=0;exitDy=0;exitPerimeter=0;" edge="1" parent="WIyWlLk6GJQsqaUBKTNV-1">
          <mxGeometry width="50" height="50" relative="1" as="geometry">
            <mxPoint x="321.23" y="1033.6" as="sourcePoint" />
            <mxPoint x="370" y="890" as="targetPoint" />
            <Array as="points">
              <mxPoint x="321.23" y="1031.6" />
              <mxPoint x="370" y="1031.4" />
            </Array>
          </mxGeometry>
        </mxCell>
        <mxCell id="AHcAX2zEuinGf8tiYZbR-116" value="&lt;b&gt;&lt;font style=&quot;font-size: 13px;&quot;&gt;A&lt;/font&gt;&lt;/b&gt;" style="edgeLabel;html=1;align=center;verticalAlign=middle;resizable=0;points=[];" vertex="1" connectable="0" parent="AHcAX2zEuinGf8tiYZbR-115">
          <mxGeometry x="-0.3988" y="-10" relative="1" as="geometry">
            <mxPoint y="-1" as="offset" />
          </mxGeometry>
        </mxCell>
        <mxCell id="AHcAX2zEuinGf8tiYZbR-117" value="" style="endArrow=none;html=1;rounded=0;" edge="1" parent="WIyWlLk6GJQsqaUBKTNV-1">
          <mxGeometry width="50" height="50" relative="1" as="geometry">
            <mxPoint x="320" y="1100" as="sourcePoint" />
            <mxPoint x="370" y="1130" as="targetPoint" />
            <Array as="points">
              <mxPoint x="370" y="1100" />
            </Array>
          </mxGeometry>
        </mxCell>
        <mxCell id="AHcAX2zEuinGf8tiYZbR-118" value="&lt;b&gt;&lt;font style=&quot;font-size: 13px;&quot;&gt;Cin&lt;/font&gt;&lt;/b&gt;" style="edgeLabel;html=1;align=center;verticalAlign=middle;resizable=0;points=[];" vertex="1" connectable="0" parent="AHcAX2zEuinGf8tiYZbR-117">
          <mxGeometry x="0.69" y="8" relative="1" as="geometry">
            <mxPoint x="2" y="2" as="offset" />
          </mxGeometry>
        </mxCell>
        <mxCell id="AHcAX2zEuinGf8tiYZbR-119" value="" style="endArrow=none;html=1;rounded=0;" edge="1" parent="WIyWlLk6GJQsqaUBKTNV-1">
          <mxGeometry width="50" height="50" relative="1" as="geometry">
            <mxPoint x="290" y="890" as="sourcePoint" />
            <mxPoint x="260" y="1036.8" as="targetPoint" />
            <Array as="points">
              <mxPoint x="290" y="936.8" />
              <mxPoint x="210" y="936.8" />
              <mxPoint x="210" y="996.8" />
              <mxPoint x="210" y="1036.8" />
            </Array>
          </mxGeometry>
        </mxCell>
        <mxCell id="AHcAX2zEuinGf8tiYZbR-120" value="" style="endArrow=none;html=1;rounded=0;exitX=0.25;exitY=1;exitDx=0;exitDy=0;" edge="1" parent="WIyWlLk6GJQsqaUBKTNV-1" source="AHcAX2zEuinGf8tiYZbR-98">
          <mxGeometry width="50" height="50" relative="1" as="geometry">
            <mxPoint x="180" y="878" as="sourcePoint" />
            <mxPoint x="250" y="1098" as="targetPoint" />
            <Array as="points">
              <mxPoint x="180" y="937" />
              <mxPoint x="180" y="998" />
              <mxPoint x="180" y="1037" />
              <mxPoint x="180" y="1068" />
              <mxPoint x="180" y="1088" />
              <mxPoint x="180" y="1098" />
              <mxPoint x="250" y="1098" />
              <mxPoint x="260" y="1098" />
            </Array>
          </mxGeometry>
        </mxCell>
        <mxCell id="AHcAX2zEuinGf8tiYZbR-121" value="" style="endArrow=classic;html=1;rounded=0;entryX=0.503;entryY=-0.133;entryDx=0;entryDy=0;entryPerimeter=0;" edge="1" parent="WIyWlLk6GJQsqaUBKTNV-1">
          <mxGeometry width="50" height="50" relative="1" as="geometry">
            <mxPoint x="779.02" y="1008" as="sourcePoint" />
            <mxPoint x="720" y="1008.3599999999999" as="targetPoint" />
          </mxGeometry>
        </mxCell>
        <mxCell id="AHcAX2zEuinGf8tiYZbR-122" value="&lt;b&gt;&lt;font style=&quot;font-size: 13px;&quot;&gt;CLK&lt;/font&gt;&lt;/b&gt;" style="edgeLabel;html=1;align=center;verticalAlign=middle;resizable=0;points=[];" vertex="1" connectable="0" parent="AHcAX2zEuinGf8tiYZbR-121">
          <mxGeometry x="-0.4522" y="-9" relative="1" as="geometry">
            <mxPoint y="-1" as="offset" />
          </mxGeometry>
        </mxCell>
        <mxCell id="AHcAX2zEuinGf8tiYZbR-123" value="&lt;b&gt;&lt;font style=&quot;font-size: 13px;&quot;&gt;CheckLSB&lt;/font&gt;&lt;/b&gt;" style="text;html=1;align=center;verticalAlign=middle;resizable=0;points=[];autosize=1;strokeColor=none;fillColor=none;" vertex="1" parent="WIyWlLk6GJQsqaUBKTNV-1">
          <mxGeometry x="690" y="900" width="90" height="30" as="geometry" />
        </mxCell>
        <mxCell id="AHcAX2zEuinGf8tiYZbR-124" value="&lt;b&gt;&lt;font style=&quot;font-size: 13px;&quot;&gt;Mux Signal&lt;/font&gt;&lt;/b&gt;" style="text;html=1;align=center;verticalAlign=middle;resizable=0;points=[];autosize=1;strokeColor=none;fillColor=none;" vertex="1" parent="WIyWlLk6GJQsqaUBKTNV-1">
          <mxGeometry x="550" y="1045" width="90" height="30" as="geometry" />
        </mxCell>
        <mxCell id="AHcAX2zEuinGf8tiYZbR-125" value="" style="endArrow=none;html=1;rounded=0;exitX=0.75;exitY=1;exitDx=0;exitDy=0;entryX=1;entryY=0.5;entryDx=0;entryDy=0;" edge="1" parent="WIyWlLk6GJQsqaUBKTNV-1" source="AHcAX2zEuinGf8tiYZbR-103" target="AHcAX2zEuinGf8tiYZbR-114">
          <mxGeometry width="50" height="50" relative="1" as="geometry">
            <mxPoint x="650" y="1190" as="sourcePoint" />
            <mxPoint x="290" y="1140" as="targetPoint" />
            <Array as="points">
              <mxPoint x="640" y="1020" />
              <mxPoint x="640" y="1190" />
              <mxPoint x="290" y="1190" />
            </Array>
          </mxGeometry>
        </mxCell>
        <mxCell id="AHcAX2zEuinGf8tiYZbR-126" value="&lt;b&gt;&lt;font style=&quot;font-size: 13px;&quot;&gt;Output&lt;/font&gt;&lt;/b&gt;" style="text;html=1;align=center;verticalAlign=middle;resizable=0;points=[];autosize=1;strokeColor=none;fillColor=none;" vertex="1" parent="WIyWlLk6GJQsqaUBKTNV-1">
          <mxGeometry x="195" y="1008" width="70" height="30" as="geometry" />
        </mxCell>
        <mxCell id="AHcAX2zEuinGf8tiYZbR-127" value="&lt;b&gt;&lt;font style=&quot;font-size: 13px;&quot;&gt;Carry out&lt;/font&gt;&lt;/b&gt;" style="text;html=1;align=center;verticalAlign=middle;resizable=0;points=[];autosize=1;strokeColor=none;fillColor=none;" vertex="1" parent="WIyWlLk6GJQsqaUBKTNV-1">
          <mxGeometry x="180" y="1098" width="80" height="30" as="geometry" />
        </mxCell>
        <mxCell id="AHcAX2zEuinGf8tiYZbR-128" value="&lt;b&gt;&lt;font style=&quot;font-size: 13px;&quot;&gt;Add Signal&lt;/font&gt;&lt;/b&gt;" style="text;html=1;align=center;verticalAlign=middle;resizable=0;points=[];autosize=1;strokeColor=none;fillColor=none;" vertex="1" parent="WIyWlLk6GJQsqaUBKTNV-1">
          <mxGeometry x="285" y="1198" width="90" height="30" as="geometry" />
        </mxCell>
        <mxCell id="AHcAX2zEuinGf8tiYZbR-129" value="" style="shape=flexArrow;endArrow=classic;html=1;rounded=0;" edge="1" parent="WIyWlLk6GJQsqaUBKTNV-1">
          <mxGeometry width="50" height="50" relative="1" as="geometry">
            <mxPoint x="185" y="826" as="sourcePoint" />
            <mxPoint x="590" y="826" as="targetPoint" />
          </mxGeometry>
        </mxCell>
        <mxCell id="AHcAX2zEuinGf8tiYZbR-130" value="&lt;b&gt;&lt;font style=&quot;font-size: 13px;&quot;&gt;Shift Right&lt;/font&gt;&lt;/b&gt;" style="text;html=1;align=center;verticalAlign=middle;resizable=0;points=[];autosize=1;strokeColor=none;fillColor=none;" vertex="1" parent="WIyWlLk6GJQsqaUBKTNV-1">
          <mxGeometry x="245" y="778" width="90" height="30" as="geometry" />
        </mxCell>
        <mxCell id="AHcAX2zEuinGf8tiYZbR-131" value="" style="endArrow=classic;html=1;rounded=0;entryX=0.503;entryY=-0.133;entryDx=0;entryDy=0;entryPerimeter=0;" edge="1" parent="WIyWlLk6GJQsqaUBKTNV-1">
          <mxGeometry width="50" height="50" relative="1" as="geometry">
            <mxPoint x="779.02" y="1038" as="sourcePoint" />
            <mxPoint x="720" y="1038.36" as="targetPoint" />
          </mxGeometry>
        </mxCell>
        <mxCell id="AHcAX2zEuinGf8tiYZbR-132" value="&lt;b&gt;&lt;font style=&quot;font-size: 13px;&quot;&gt;Start&lt;/font&gt;&lt;/b&gt;" style="edgeLabel;html=1;align=center;verticalAlign=middle;resizable=0;points=[];" vertex="1" connectable="0" parent="AHcAX2zEuinGf8tiYZbR-131">
          <mxGeometry x="-0.4522" y="-9" relative="1" as="geometry">
            <mxPoint y="-1" as="offset" />
          </mxGeometry>
        </mxCell>
        <mxCell id="AHcAX2zEuinGf8tiYZbR-133" value="" style="endArrow=classic;html=1;rounded=0;entryX=0.503;entryY=-0.133;entryDx=0;entryDy=0;entryPerimeter=0;" edge="1" parent="WIyWlLk6GJQsqaUBKTNV-1">
          <mxGeometry width="50" height="50" relative="1" as="geometry">
            <mxPoint x="779.02" y="980" as="sourcePoint" />
            <mxPoint x="720" y="980.3599999999999" as="targetPoint" />
          </mxGeometry>
        </mxCell>
        <mxCell id="AHcAX2zEuinGf8tiYZbR-134" value="&lt;b&gt;&lt;font style=&quot;font-size: 13px;&quot;&gt;Reset&lt;/font&gt;&lt;/b&gt;" style="edgeLabel;html=1;align=center;verticalAlign=middle;resizable=0;points=[];" vertex="1" connectable="0" parent="AHcAX2zEuinGf8tiYZbR-133">
          <mxGeometry x="-0.4522" y="-9" relative="1" as="geometry">
            <mxPoint y="-1" as="offset" />
          </mxGeometry>
        </mxCell>
        <mxCell id="AHcAX2zEuinGf8tiYZbR-135" value="" style="endArrow=none;html=1;rounded=0;entryX=0.37;entryY=1;entryDx=0;entryDy=0;entryPerimeter=0;" edge="1" parent="WIyWlLk6GJQsqaUBKTNV-1">
          <mxGeometry width="50" height="50" relative="1" as="geometry">
            <mxPoint x="420" y="820" as="sourcePoint" />
            <mxPoint x="660" y="964.4000000000001" as="targetPoint" />
            <Array as="points">
              <mxPoint x="420" y="790" />
              <mxPoint x="640" y="790" />
              <mxPoint x="640" y="900" />
              <mxPoint x="640" y="964" />
            </Array>
          </mxGeometry>
        </mxCell>
        <mxCell id="AHcAX2zEuinGf8tiYZbR-136" value="&lt;b&gt;&lt;font style=&quot;font-size: 13px;&quot;&gt;Shift Signal&lt;/font&gt;&lt;/b&gt;" style="text;html=1;align=center;verticalAlign=middle;resizable=0;points=[];autosize=1;strokeColor=none;fillColor=none;" vertex="1" parent="WIyWlLk6GJQsqaUBKTNV-1">
          <mxGeometry x="465" y="758" width="90" height="30" as="geometry" />
        </mxCell>
        <mxCell id="AHcAX2zEuinGf8tiYZbR-137" value="&lt;b&gt;&lt;font style=&quot;font-size: 22px;&quot;&gt;Controller&lt;/font&gt;&lt;/b&gt;" style="text;html=1;align=center;verticalAlign=middle;resizable=0;points=[];autosize=1;strokeColor=none;fillColor=none;" vertex="1" parent="WIyWlLk6GJQsqaUBKTNV-1">
          <mxGeometry x="375" y="1290" width="120" height="40" as="geometry" />
        </mxCell>
        <mxCell id="AHcAX2zEuinGf8tiYZbR-138" value="IDLE" style="ellipse;whiteSpace=wrap;html=1;aspect=fixed;fontSize=16;" vertex="1" parent="WIyWlLk6GJQsqaUBKTNV-1">
          <mxGeometry x="410" y="1410" width="70" height="70" as="geometry" />
        </mxCell>
        <mxCell id="AHcAX2zEuinGf8tiYZbR-139" value="CHECK&lt;br&gt;LSB" style="ellipse;whiteSpace=wrap;html=1;aspect=fixed;fontSize=16;" vertex="1" parent="WIyWlLk6GJQsqaUBKTNV-1">
          <mxGeometry x="540" y="1545" width="70" height="70" as="geometry" />
        </mxCell>
        <mxCell id="AHcAX2zEuinGf8tiYZbR-140" value="ADD" style="ellipse;whiteSpace=wrap;html=1;aspect=fixed;fontSize=16;" vertex="1" parent="WIyWlLk6GJQsqaUBKTNV-1">
          <mxGeometry x="417.5" y="1700" width="75" height="75" as="geometry" />
        </mxCell>
        <mxCell id="AHcAX2zEuinGf8tiYZbR-141" value="SHIFT" style="ellipse;whiteSpace=wrap;html=1;aspect=fixed;fontSize=16;" vertex="1" parent="WIyWlLk6GJQsqaUBKTNV-1">
          <mxGeometry x="275" y="1540" width="75" height="75" as="geometry" />
        </mxCell>
        <mxCell id="AHcAX2zEuinGf8tiYZbR-142" value="" style="endArrow=classic;html=1;rounded=0;entryX=0.5;entryY=0;entryDx=0;entryDy=0;" edge="1" parent="WIyWlLk6GJQsqaUBKTNV-1" target="AHcAX2zEuinGf8tiYZbR-139">
          <mxGeometry width="50" height="50" relative="1" as="geometry">
            <mxPoint x="478" y="1450" as="sourcePoint" />
            <mxPoint x="528" y="1400" as="targetPoint" />
          </mxGeometry>
        </mxCell>
        <mxCell id="AHcAX2zEuinGf8tiYZbR-143" value="&lt;b&gt;&lt;font style=&quot;font-size: 13px;&quot;&gt;Start = 1&lt;/font&gt;&lt;/b&gt;" style="text;html=1;align=center;verticalAlign=middle;resizable=0;points=[];autosize=1;strokeColor=none;fillColor=none;" vertex="1" parent="WIyWlLk6GJQsqaUBKTNV-1">
          <mxGeometry x="510" y="1468" width="80" height="30" as="geometry" />
        </mxCell>
        <mxCell id="AHcAX2zEuinGf8tiYZbR-144" value="" style="endArrow=classic;html=1;rounded=0;entryX=0.996;entryY=0.416;entryDx=0;entryDy=0;entryPerimeter=0;" edge="1" parent="WIyWlLk6GJQsqaUBKTNV-1" target="AHcAX2zEuinGf8tiYZbR-140">
          <mxGeometry width="50" height="50" relative="1" as="geometry">
            <mxPoint x="568" y="1615" as="sourcePoint" />
            <mxPoint x="640" y="1715" as="targetPoint" />
          </mxGeometry>
        </mxCell>
        <mxCell id="AHcAX2zEuinGf8tiYZbR-145" value="&lt;b&gt;&lt;font style=&quot;font-size: 13px;&quot;&gt;&amp;nbsp; &amp;nbsp;&amp;nbsp; &amp;nbsp;&amp;nbsp;&amp;nbsp;&amp;nbsp;&amp;nbsp;&amp;nbsp;&amp;nbsp;&amp;nbsp;&amp;nbsp;&amp;nbsp; MUX Signal = 1&lt;/font&gt;&lt;/b&gt;" style="text;html=1;align=center;verticalAlign=middle;resizable=0;points=[];autosize=1;strokeColor=none;fillColor=none;" vertex="1" parent="WIyWlLk6GJQsqaUBKTNV-1">
          <mxGeometry x="550" y="1562.5" width="170" height="30" as="geometry" />
        </mxCell>
        <mxCell id="AHcAX2zEuinGf8tiYZbR-146" value="" style="endArrow=classic;html=1;rounded=0;entryX=0;entryY=0.357;entryDx=0;entryDy=0;entryPerimeter=0;" edge="1" parent="WIyWlLk6GJQsqaUBKTNV-1" target="AHcAX2zEuinGf8tiYZbR-139">
          <mxGeometry width="50" height="50" relative="1" as="geometry">
            <mxPoint x="350" y="1570" as="sourcePoint" />
            <mxPoint x="400" y="1520" as="targetPoint" />
          </mxGeometry>
        </mxCell>
        <mxCell id="AHcAX2zEuinGf8tiYZbR-147" value="" style="endArrow=classic;html=1;rounded=0;entryX=0.5;entryY=1;entryDx=0;entryDy=0;" edge="1" parent="WIyWlLk6GJQsqaUBKTNV-1" target="AHcAX2zEuinGf8tiYZbR-141">
          <mxGeometry width="50" height="50" relative="1" as="geometry">
            <mxPoint x="417.5" y="1730" as="sourcePoint" />
            <mxPoint x="467.5" y="1680" as="targetPoint" />
          </mxGeometry>
        </mxCell>
        <mxCell id="AHcAX2zEuinGf8tiYZbR-148" value="&lt;b&gt;&lt;font style=&quot;font-size: 13px;&quot;&gt;&amp;nbsp; &amp;nbsp;&amp;nbsp; &amp;nbsp;&amp;nbsp;&amp;nbsp;&amp;nbsp;&amp;nbsp;&amp;nbsp;&amp;nbsp;&amp;nbsp;&amp;nbsp;&amp;nbsp; ADD Signal = 1&lt;/font&gt;&lt;/b&gt;" style="text;html=1;align=center;verticalAlign=middle;resizable=0;points=[];autosize=1;strokeColor=none;fillColor=none;" vertex="1" parent="WIyWlLk6GJQsqaUBKTNV-1">
          <mxGeometry x="340" y="1780" width="170" height="30" as="geometry" />
        </mxCell>
        <mxCell id="AHcAX2zEuinGf8tiYZbR-149" value="&lt;font style=&quot;font-size: 13px;&quot;&gt;&lt;b&gt;Shift Signal = 1&lt;br&gt;&lt;/b&gt;&lt;/font&gt;" style="text;html=1;align=center;verticalAlign=middle;resizable=0;points=[];autosize=1;strokeColor=none;fillColor=none;" vertex="1" parent="WIyWlLk6GJQsqaUBKTNV-1">
          <mxGeometry x="145" y="1560" width="120" height="30" as="geometry" />
        </mxCell>
        <mxCell id="AHcAX2zEuinGf8tiYZbR-150" value="&lt;font style=&quot;font-size: 13px;&quot;&gt;&lt;b&gt;Count = Count + 1&lt;br&gt;&lt;/b&gt;&lt;/font&gt;" style="text;html=1;align=center;verticalAlign=middle;resizable=0;points=[];autosize=1;strokeColor=none;fillColor=none;" vertex="1" parent="WIyWlLk6GJQsqaUBKTNV-1">
          <mxGeometry x="135" y="1580" width="140" height="30" as="geometry" />
        </mxCell>
        <mxCell id="AHcAX2zEuinGf8tiYZbR-151" value="" style="endArrow=classic;html=1;rounded=0;entryX=0;entryY=0.5;entryDx=0;entryDy=0;" edge="1" parent="WIyWlLk6GJQsqaUBKTNV-1" target="AHcAX2zEuinGf8tiYZbR-138">
          <mxGeometry width="50" height="50" relative="1" as="geometry">
            <mxPoint x="310" y="1540" as="sourcePoint" />
            <mxPoint x="360" y="1490" as="targetPoint" />
          </mxGeometry>
        </mxCell>
        <mxCell id="AHcAX2zEuinGf8tiYZbR-152" value="&lt;b&gt;&lt;font style=&quot;font-size: 13px;&quot;&gt;Count &amp;gt; 16&lt;/font&gt;&lt;/b&gt;" style="text;html=1;align=center;verticalAlign=middle;resizable=0;points=[];autosize=1;strokeColor=none;fillColor=none;" vertex="1" parent="WIyWlLk6GJQsqaUBKTNV-1">
          <mxGeometry x="275" y="1468" width="90" height="30" as="geometry" />
        </mxCell>
        <mxCell id="AHcAX2zEuinGf8tiYZbR-153" value="&lt;b&gt;&lt;font style=&quot;font-size: 13px;&quot;&gt;Count &amp;lt; 16&lt;/font&gt;&lt;/b&gt;" style="text;html=1;align=center;verticalAlign=middle;resizable=0;points=[];autosize=1;strokeColor=none;fillColor=none;" vertex="1" parent="WIyWlLk6GJQsqaUBKTNV-1">
          <mxGeometry x="400" y="1540" width="90" height="30" as="geometry" />
        </mxCell>
        <mxCell id="AHcAX2zEuinGf8tiYZbR-154" value="" style="endArrow=classic;html=1;rounded=0;entryX=0.948;entryY=0.255;entryDx=0;entryDy=0;entryPerimeter=0;" edge="1" parent="WIyWlLk6GJQsqaUBKTNV-1" target="AHcAX2zEuinGf8tiYZbR-138">
          <mxGeometry width="50" height="50" relative="1" as="geometry">
            <mxPoint x="415" y="1430" as="sourcePoint" />
            <mxPoint x="465" y="1380" as="targetPoint" />
            <Array as="points">
              <mxPoint x="410" y="1380" />
              <mxPoint x="420" y="1360" />
              <mxPoint x="470" y="1360" />
              <mxPoint x="480" y="1390" />
            </Array>
          </mxGeometry>
        </mxCell>
        <mxCell id="AHcAX2zEuinGf8tiYZbR-155" value="&lt;b&gt;&lt;font style=&quot;font-size: 13px;&quot;&gt;Reset = 1 &lt;/font&gt;&lt;/b&gt;" style="text;html=1;align=center;verticalAlign=middle;resizable=0;points=[];autosize=1;strokeColor=none;fillColor=none;" vertex="1" parent="WIyWlLk6GJQsqaUBKTNV-1">
          <mxGeometry x="400" y="1330" width="80" height="30" as="geometry" />
        </mxCell>
      </root>
    </mxGraphModel>
  </diagram>
</mxfile>
